<svg id="svg" version="1.1" xmlns="http://www.w3.org/2000/svg" xmlns:xlink="http://www.w3.org/1999/xlink" width="400" height="400" viewBox="0, 0, 400,400"><g id="svgg"><path id="path0" d="M188.328 0.205 C 188.215 0.318,187.060 0.443,185.761 0.483 C 184.463 0.523,183.306 0.690,183.191 0.855 C 183.076 1.019,182.140 1.197,181.113 1.250 C 180.085 1.304,179.335 1.494,179.445 1.674 C 179.556 1.853,178.917 2.000,178.024 2.000 C 177.131 2.000,176.400 2.180,176.400 2.400 C 176.400 2.620,175.680 2.800,174.800 2.800 C 173.920 2.800,173.200 2.980,173.200 3.200 C 173.200 3.420,172.660 3.600,172.000 3.600 C 171.340 3.600,170.800 3.780,170.800 4.000 C 170.800 4.220,170.350 4.400,169.800 4.400 C 169.250 4.400,168.800 4.580,168.800 4.800 C 168.800 5.020,168.350 5.200,167.800 5.200 C 167.250 5.200,166.800 5.380,166.800 5.600 C 166.800 5.820,166.408 6.000,165.929 6.000 C 165.450 6.000,163.571 6.720,161.753 7.600 C 159.935 8.480,158.257 9.200,158.024 9.200 C 157.791 9.200,157.600 9.359,157.600 9.553 C 157.600 9.869,156.209 10.429,155.833 10.265 C 155.751 10.229,155.350 10.488,154.942 10.839 C 154.134 11.536,152.777 12.164,152.300 12.064 C 152.135 12.029,152.000 12.168,152.000 12.373 C 152.000 12.578,151.637 12.861,151.194 13.002 C 150.751 13.143,150.509 13.452,150.656 13.691 C 150.803 13.929,150.739 14.010,150.513 13.870 C 150.288 13.731,149.687 13.978,149.178 14.419 C 148.669 14.861,147.836 15.326,147.326 15.454 C 146.817 15.582,146.400 15.823,146.400 15.989 C 146.400 16.155,145.635 16.810,144.700 17.444 C 143.765 18.079,142.910 18.689,142.800 18.801 C 142.690 18.913,141.922 19.510,141.094 20.127 C 140.266 20.744,138.801 22.048,137.838 23.025 C 136.876 24.001,135.878 24.800,135.620 24.800 C 135.363 24.800,135.264 24.980,135.400 25.200 C 135.536 25.420,135.491 25.600,135.299 25.600 C 134.807 25.600,129.232 31.099,129.477 31.343 C 129.587 31.454,129.300 31.780,128.839 32.069 C 128.378 32.357,128.000 32.727,128.000 32.892 C 128.000 33.163,127.270 34.151,126.187 35.345 C 125.960 35.595,125.338 36.430,124.806 37.200 C 124.273 37.970,123.558 38.870,123.216 39.200 C 122.874 39.530,122.340 40.295,122.030 40.900 C 121.719 41.505,121.315 42.000,121.132 42.000 C 120.950 42.000,120.800 42.320,120.800 42.712 C 120.800 43.103,120.450 43.676,120.021 43.985 C 119.593 44.293,119.321 44.673,119.417 44.828 C 119.513 44.983,119.323 45.332,118.996 45.604 C 118.668 45.876,118.394 46.391,118.387 46.749 C 118.373 47.491,117.420 48.886,117.127 48.594 C 117.021 48.487,116.933 48.652,116.933 48.959 C 116.933 49.267,116.383 50.662,115.711 52.059 C 114.616 54.334,113.349 57.134,112.389 59.400 C 112.109 60.060,111.635 61.477,111.385 62.400 C 111.355 62.510,111.215 62.870,111.074 63.200 C 110.933 63.530,110.528 64.880,110.174 66.200 C 109.820 67.520,109.348 69.230,109.124 70.000 C 108.901 70.770,108.626 72.120,108.514 73.000 C 108.402 73.880,108.161 74.785,107.979 75.012 C 107.797 75.238,107.606 76.462,107.555 77.731 C 107.504 79.000,107.313 80.130,107.131 80.243 C 106.949 80.355,106.800 81.967,106.800 83.824 C 106.800 85.935,106.641 87.200,106.376 87.200 C 106.094 87.200,105.980 89.071,106.034 92.800 C 106.079 95.880,106.238 98.400,106.386 98.400 C 106.534 98.400,106.700 100.245,106.754 102.500 C 106.808 104.755,107.021 106.771,107.226 106.980 C 107.432 107.189,107.600 108.303,107.600 109.456 C 107.600 110.609,107.780 111.664,108.000 111.800 C 108.220 111.936,108.400 112.757,108.400 113.624 C 108.400 114.491,108.580 115.200,108.800 115.200 C 109.020 115.200,109.200 115.920,109.200 116.800 C 109.200 117.680,109.360 118.400,109.556 118.400 C 109.876 118.400,110.252 119.915,110.508 122.239 C 110.558 122.700,110.814 123.336,111.076 123.651 C 111.338 123.967,111.636 124.669,111.737 125.212 C 112.077 127.031,112.198 127.378,112.665 127.885 C 112.921 128.161,113.085 128.699,113.029 129.079 C 112.974 129.460,113.220 130.084,113.577 130.468 C 113.934 130.851,114.471 131.848,114.770 132.682 C 115.068 133.517,115.422 134.290,115.556 134.400 C 116.007 134.770,117.600 138.415,117.600 139.077 C 117.600 139.438,117.716 139.617,117.857 139.476 C 117.999 139.334,118.937 140.609,119.943 142.309 C 120.948 144.009,121.912 145.460,122.085 145.533 C 122.258 145.607,122.400 145.895,122.400 146.174 C 122.400 146.453,122.940 147.246,123.600 147.937 C 124.260 148.628,124.801 149.329,124.802 149.496 C 124.803 149.663,125.343 150.375,126.002 151.078 C 126.661 151.781,127.200 152.647,127.200 153.002 C 127.200 153.357,127.380 153.536,127.600 153.400 C 127.820 153.264,128.000 153.341,128.000 153.570 C 128.000 153.799,129.336 155.324,130.970 156.957 C 132.603 158.590,133.833 160.033,133.703 160.163 C 133.573 160.294,133.685 160.400,133.952 160.400 C 134.220 160.400,135.338 161.300,136.438 162.400 C 137.538 163.500,138.620 164.400,138.843 164.400 C 139.065 164.400,139.152 164.554,139.036 164.742 C 138.920 164.929,139.276 165.289,139.828 165.540 C 141.000 166.074,141.688 166.595,143.209 168.100 C 143.821 168.705,144.443 169.200,144.593 169.200 C 144.743 169.200,145.616 169.795,146.533 170.522 C 147.450 171.249,148.650 172.066,149.200 172.338 C 150.305 172.884,150.990 173.294,153.492 174.908 C 154.423 175.509,155.458 176.000,155.792 176.000 C 156.126 176.000,156.401 176.135,156.403 176.300 C 156.407 176.659,158.344 177.600,159.080 177.600 C 159.366 177.600,159.600 177.780,159.600 178.000 C 159.600 178.220,159.971 178.400,160.424 178.400 C 160.877 178.400,161.160 178.542,161.052 178.715 C 160.945 178.888,161.340 179.070,161.929 179.119 C 162.518 179.167,163.060 179.385,163.133 179.603 C 163.207 179.822,163.612 180.000,164.033 180.000 C 164.455 180.000,164.800 180.180,164.800 180.400 C 164.800 180.620,165.115 180.803,165.500 180.806 C 166.704 180.816,169.222 181.843,168.904 182.193 C 168.737 182.377,168.886 182.426,169.235 182.301 C 169.585 182.177,170.395 182.305,171.035 182.587 C 172.429 183.200,175.056 183.972,176.290 184.131 C 176.779 184.194,177.304 184.371,177.456 184.523 C 177.609 184.675,178.207 184.800,178.787 184.800 C 179.366 184.800,180.011 184.964,180.220 185.165 C 180.429 185.365,181.590 185.625,182.800 185.741 C 184.010 185.857,186.080 186.149,187.400 186.389 C 188.720 186.630,192.050 186.865,194.800 186.913 L 199.800 187.000 199.901 93.500 L 200.002 0.000 194.268 0.000 C 191.114 0.000,188.441 0.092,188.328 0.205 M159.920 199.206 C 159.854 199.384,157.820 199.634,155.400 199.761 C 149.030 200.096,145.857 200.429,145.388 200.814 C 145.162 201.000,143.955 201.193,142.706 201.244 C 141.458 201.294,140.515 201.462,140.610 201.616 C 140.705 201.771,140.112 202.011,139.292 202.150 C 138.471 202.289,137.170 202.507,136.400 202.635 C 135.630 202.763,134.460 203.107,133.800 203.400 C 133.140 203.694,131.923 204.059,131.096 204.212 C 130.268 204.365,129.493 204.650,129.372 204.845 C 129.251 205.040,128.623 205.200,127.976 205.200 C 127.329 205.200,126.800 205.380,126.800 205.600 C 126.800 205.820,126.451 206.000,126.024 206.000 C 125.597 206.000,125.136 206.180,125.000 206.400 C 124.864 206.620,124.324 206.800,123.800 206.800 C 123.276 206.800,122.736 206.980,122.600 207.200 C 122.464 207.420,121.813 207.600,121.153 207.600 C 120.455 207.600,120.056 207.767,120.200 208.000 C 120.336 208.220,120.172 208.400,119.836 208.400 C 119.499 208.400,118.634 208.719,117.912 209.108 C 117.190 209.498,115.880 210.063,115.000 210.365 C 114.120 210.666,113.310 211.024,113.200 211.160 C 112.892 211.542,108.474 213.685,108.164 213.604 C 108.013 213.564,107.779 213.682,107.645 213.866 C 107.255 214.397,105.162 215.737,103.118 216.763 C 102.082 217.283,100.912 217.998,100.518 218.354 C 100.123 218.709,99.305 219.255,98.700 219.568 C 98.095 219.880,97.600 220.285,97.600 220.468 C 97.600 220.650,97.368 220.800,97.083 220.800 C 96.799 220.800,95.899 221.430,95.082 222.200 C 94.266 222.970,93.427 223.600,93.217 223.600 C 93.008 223.600,92.386 224.050,91.836 224.600 C 91.286 225.150,90.693 225.600,90.518 225.600 C 90.343 225.601,89.677 226.051,89.038 226.600 C 88.399 227.150,87.724 227.600,87.538 227.600 C 87.352 227.600,87.200 227.793,87.200 228.029 C 87.200 228.586,86.455 229.315,84.596 230.577 C 83.767 231.140,83.228 231.600,83.398 231.600 C 83.568 231.600,83.189 231.999,82.554 232.486 C 81.919 232.973,81.254 233.606,81.075 233.894 C 80.897 234.182,80.595 234.320,80.404 234.203 C 80.214 234.085,79.949 234.330,79.817 234.747 C 79.515 235.699,78.232 237.200,77.721 237.200 C 77.509 237.200,77.080 237.688,76.768 238.283 C 76.455 238.879,75.239 240.364,74.064 241.583 C 72.889 242.802,71.635 244.294,71.278 244.900 C 70.920 245.505,70.498 246.000,70.339 246.000 C 70.181 246.000,69.647 246.720,69.152 247.600 C 68.657 248.480,68.106 249.200,67.926 249.200 C 67.747 249.200,67.600 249.455,67.600 249.767 C 67.600 250.078,67.464 250.393,67.297 250.467 C 66.769 250.699,64.400 253.895,64.400 254.375 C 64.400 254.628,63.950 255.320,63.400 255.913 C 62.850 256.507,62.400 257.206,62.400 257.467 C 62.400 257.729,62.175 258.181,61.900 258.471 C 61.625 258.762,60.834 260.114,60.142 261.475 C 59.450 262.836,58.775 263.841,58.642 263.708 C 58.509 263.575,58.400 263.836,58.400 264.288 C 58.400 265.322,57.409 267.275,57.061 266.927 C 56.917 266.784,56.800 267.049,56.800 267.516 C 56.800 267.983,56.260 269.281,55.600 270.400 C 54.940 271.519,54.400 272.877,54.400 273.418 C 54.400 273.958,54.220 274.400,54.000 274.400 C 53.780 274.400,53.600 274.839,53.600 275.376 C 53.600 275.913,53.420 276.464,53.200 276.600 C 52.980 276.736,52.800 277.207,52.800 277.647 C 52.800 278.087,52.658 278.360,52.485 278.252 C 52.312 278.145,52.131 278.530,52.083 279.107 C 52.035 279.683,51.637 280.897,51.198 281.804 C 50.759 282.711,50.400 283.835,50.400 284.303 C 50.400 284.770,50.220 285.264,50.000 285.400 C 49.780 285.536,49.600 286.267,49.600 287.024 C 49.600 287.781,49.445 288.400,49.256 288.400 C 49.066 288.400,48.810 289.259,48.685 290.308 C 48.561 291.357,48.179 293.022,47.836 294.008 C 47.492 294.994,47.209 296.355,47.206 297.033 C 47.203 297.712,47.073 298.393,46.918 298.548 C 46.763 298.703,46.596 299.228,46.547 299.715 C 46.498 300.202,46.328 301.680,46.168 303.000 C 46.008 304.320,45.857 306.153,45.832 307.074 C 45.806 307.994,45.666 308.867,45.520 309.013 C 45.375 309.159,45.345 309.512,45.455 309.799 C 45.565 310.085,45.489 310.422,45.286 310.547 C 45.066 310.683,44.883 328.712,44.832 355.387 L 44.746 400.000 122.373 400.000 L 200.000 400.000 200.000 299.382 L 200.000 198.765 180.020 198.823 C 169.031 198.856,159.986 199.028,159.920 199.206 " stroke="none" fill="#04a4fc" fill-rule="evenodd"></path><path id="path1" d="M211.522 0.435 C 211.352 0.944,203.732 1.198,201.700 0.763 L 200.400 0.484 200.399 93.142 L 200.399 185.800 204.251 185.709 C 206.369 185.660,208.775 185.770,209.598 185.955 C 210.853 186.237,211.085 186.187,211.046 185.645 C 210.995 184.935,212.220 184.824,214.935 185.295 C 216.159 185.507,216.427 185.448,216.256 185.001 C 215.979 184.279,217.270 183.864,218.771 184.194 C 219.429 184.338,220.036 184.265,220.186 184.023 C 220.329 183.791,220.966 183.600,221.600 183.600 C 222.234 183.600,222.874 183.403,223.023 183.162 C 223.172 182.921,223.994 182.792,224.856 182.874 C 226.003 182.983,226.365 182.887,226.221 182.511 C 226.085 182.157,226.450 182.000,227.413 182.000 C 228.176 182.000,228.800 181.820,228.800 181.600 C 228.800 181.380,229.239 181.200,229.776 181.200 C 230.313 181.200,230.864 181.020,231.000 180.800 C 231.136 180.580,231.597 180.400,232.024 180.400 C 232.451 180.400,232.800 180.220,232.800 180.000 C 232.800 179.780,233.340 179.600,234.000 179.600 C 234.660 179.600,235.200 179.420,235.200 179.200 C 235.200 178.980,235.465 178.800,235.788 178.800 C 236.111 178.800,237.050 178.421,237.875 177.958 C 239.089 177.276,239.516 177.205,240.126 177.586 C 240.539 177.844,240.980 177.953,241.106 177.828 C 241.231 177.702,241.123 177.600,240.867 177.600 C 240.610 177.600,240.400 177.330,240.400 177.000 C 240.400 176.670,240.670 176.400,241.000 176.400 C 241.330 176.400,241.600 176.220,241.600 176.000 C 241.600 175.780,242.050 175.600,242.600 175.600 C 243.150 175.600,243.600 175.453,243.600 175.274 C 243.600 174.990,246.207 173.498,246.829 173.426 C 246.954 173.412,247.372 173.085,247.757 172.700 C 248.142 172.315,248.705 172.000,249.009 172.000 C 249.312 172.000,249.736 171.686,249.950 171.303 C 250.165 170.920,250.454 170.721,250.593 170.860 C 250.732 170.999,251.416 170.592,252.112 169.956 C 252.809 169.320,253.537 168.800,253.732 168.800 C 253.926 168.800,254.440 168.348,254.874 167.796 C 255.309 167.244,255.830 166.895,256.032 167.020 C 256.234 167.145,256.400 167.057,256.400 166.824 C 256.400 166.591,256.588 166.400,256.818 166.400 C 257.048 166.400,257.656 165.995,258.168 165.500 C 259.430 164.281,260.766 163.200,261.010 163.200 C 261.308 163.200,268.807 155.565,270.200 153.843 C 270.860 153.028,271.895 151.810,272.500 151.138 C 273.105 150.466,273.600 149.763,273.600 149.576 C 273.600 149.389,274.005 148.813,274.500 148.295 C 274.995 147.777,275.628 147.004,275.906 146.576 C 276.184 146.149,276.758 145.260,277.182 144.600 C 277.606 143.940,278.108 143.220,278.299 143.000 C 278.489 142.780,278.903 142.015,279.220 141.300 C 279.536 140.585,279.931 140.000,280.098 140.000 C 280.264 140.000,280.400 139.745,280.400 139.433 C 280.400 139.122,280.537 138.807,280.704 138.733 C 280.871 138.660,281.811 136.980,282.794 135.000 C 283.777 133.020,284.743 131.285,284.942 131.145 C 285.140 131.004,285.191 130.710,285.056 130.490 C 284.920 130.270,285.058 129.884,285.363 129.631 C 285.668 129.378,285.826 128.819,285.713 128.390 C 285.590 127.917,285.746 127.519,286.110 127.379 C 286.471 127.241,286.631 126.840,286.510 126.379 C 286.388 125.912,286.551 125.517,286.926 125.373 C 287.278 125.238,287.477 124.799,287.390 124.348 C 287.307 123.915,287.480 123.468,287.775 123.354 C 288.096 123.231,288.224 122.813,288.094 122.314 C 287.969 121.839,288.118 121.291,288.438 121.040 C 288.747 120.798,289.040 120.150,289.088 119.600 C 289.294 117.261,289.719 115.599,290.218 115.185 C 290.512 114.941,290.654 114.484,290.533 114.170 C 290.255 113.444,290.725 111.506,291.120 111.751 C 291.283 111.852,291.413 110.914,291.409 109.667 C 291.401 107.733,291.505 107.409,292.114 107.458 C 292.665 107.503,292.727 107.394,292.387 106.984 C 291.893 106.389,292.006 100.132,292.508 100.308 C 293.089 100.513,293.952 99.426,293.456 99.114 C 293.147 98.920,293.000 96.853,293.000 92.714 C 293.000 89.095,292.837 86.483,292.600 86.314 C 292.380 86.157,292.200 84.507,292.200 82.647 C 292.200 80.615,292.040 79.293,291.800 79.333 C 291.325 79.412,291.042 76.683,291.384 75.322 C 291.516 74.797,291.798 74.475,292.012 74.607 C 292.225 74.739,292.400 74.653,292.400 74.416 C 292.400 74.151,291.998 74.086,291.357 74.247 C 290.335 74.503,290.318 74.475,290.545 72.858 C 290.710 71.677,290.637 71.235,290.288 71.304 C 289.991 71.362,289.800 70.930,289.800 70.200 C 289.800 69.540,289.550 68.804,289.245 68.565 C 288.899 68.294,288.759 67.661,288.874 66.881 C 288.983 66.134,288.867 65.558,288.585 65.450 C 288.149 65.282,287.534 63.405,287.454 62.000 C 287.436 61.670,287.146 61.186,286.810 60.923 C 286.080 60.353,286.767 58.911,287.663 59.133 C 287.958 59.207,288.055 59.122,287.879 58.945 C 287.702 58.769,287.162 58.619,286.679 58.612 C 286.173 58.605,285.845 58.379,285.907 58.079 C 285.966 57.792,285.739 57.282,285.403 56.946 C 285.068 56.610,284.895 56.170,285.020 55.968 C 285.145 55.765,285.057 55.600,284.824 55.600 C 284.591 55.600,284.400 55.352,284.400 55.049 C 284.400 54.746,284.132 54.276,283.804 54.004 C 283.477 53.732,283.300 53.362,283.411 53.182 C 283.522 53.002,283.430 52.742,283.207 52.604 C 282.983 52.466,282.800 52.003,282.800 51.576 C 282.800 51.149,282.620 50.800,282.400 50.800 C 282.180 50.800,282.000 50.440,282.000 50.000 C 282.000 49.560,281.820 49.200,281.600 49.200 C 281.380 49.200,281.200 48.930,281.200 48.600 C 281.200 48.270,281.020 48.000,280.800 48.000 C 280.580 48.000,280.400 47.640,280.400 47.200 C 280.400 46.760,280.220 46.400,280.000 46.400 C 279.780 46.400,279.600 46.130,279.600 45.800 C 279.600 45.470,279.462 45.200,279.294 45.200 C 279.126 45.200,278.674 44.473,278.289 43.585 C 277.905 42.698,277.322 41.868,276.995 41.743 C 276.668 41.617,276.400 41.194,276.400 40.802 C 276.400 40.411,275.862 39.665,275.204 39.145 C 274.546 38.625,274.006 37.957,274.004 37.660 C 274.002 37.364,273.466 36.622,272.814 36.013 C 272.162 35.404,271.742 34.792,271.881 34.653 C 272.020 34.514,271.923 34.400,271.667 34.400 C 271.410 34.400,271.200 34.210,271.200 33.977 C 271.200 33.251,258.837 21.200,258.092 21.200 C 257.927 21.200,257.568 20.840,257.293 20.400 C 257.018 19.960,256.605 19.600,256.375 19.600 C 256.145 19.600,255.381 19.061,254.678 18.402 C 253.975 17.743,253.177 17.203,252.903 17.202 C 252.630 17.201,252.182 16.840,251.907 16.400 C 251.632 15.960,251.091 15.600,250.704 15.600 C 250.317 15.600,249.679 15.279,249.287 14.887 C 248.894 14.494,247.912 13.860,247.104 13.476 C 246.295 13.092,245.526 12.603,245.393 12.389 C 245.261 12.175,244.803 12.000,244.376 12.000 C 243.949 12.000,243.600 11.820,243.600 11.600 C 243.600 11.380,243.240 11.200,242.800 11.200 C 242.360 11.200,242.000 11.020,242.000 10.800 C 242.000 10.580,241.640 10.400,241.200 10.400 C 240.760 10.400,240.399 10.265,240.397 10.100 C 240.393 9.741,238.456 8.800,237.720 8.800 C 237.434 8.800,237.200 8.620,237.200 8.400 C 237.200 8.180,236.840 8.000,236.400 8.000 C 235.960 8.000,235.600 7.820,235.600 7.600 C 235.600 7.380,235.150 7.200,234.600 7.200 C 234.050 7.200,233.600 7.020,233.600 6.800 C 233.600 6.580,233.060 6.400,232.400 6.400 C 231.740 6.400,231.200 6.220,231.200 6.000 C 231.200 5.780,230.750 5.600,230.200 5.600 C 229.650 5.600,229.200 5.420,229.200 5.200 C 229.200 4.980,228.660 4.800,228.000 4.800 C 227.340 4.800,226.800 4.620,226.800 4.400 C 226.800 4.180,226.086 4.000,225.213 4.000 C 224.101 4.000,223.683 3.849,223.818 3.497 C 223.960 3.126,223.536 3.031,222.206 3.137 C 221.132 3.222,220.400 3.112,220.400 2.865 C 220.400 2.637,219.697 2.460,218.837 2.472 C 217.978 2.484,217.033 2.337,216.737 2.147 C 216.177 1.785,215.983 1.756,213.457 1.659 C 212.279 1.614,211.968 1.461,212.140 1.013 C 212.264 0.690,212.208 0.329,212.017 0.210 C 211.825 0.092,211.602 0.193,211.522 0.435 M264.800 25.102 C 264.800 25.299,265.290 25.897,265.888 26.430 C 266.686 27.142,266.819 27.187,266.388 26.602 C 265.450 25.328,264.800 24.714,264.800 25.102 M271.861 153.862 C 271.234 154.598,270.874 155.190,271.061 155.178 C 271.450 155.152,273.369 152.821,273.147 152.642 C 273.066 152.578,272.487 153.126,271.861 153.862 M241.106 199.827 C 240.981 199.952,231.771 200.038,220.639 200.018 L 200.400 199.981 200.400 299.991 L 200.400 400.000 277.000 400.000 L 353.600 400.000 353.644 357.300 C 353.668 333.815,353.739 313.980,353.801 313.223 C 353.863 312.465,354.019 310.755,354.148 309.423 C 354.340 307.439,354.301 307.181,353.936 308.000 L 353.489 309.000 353.080 307.676 C 352.590 306.091,353.161 303.342,353.945 303.510 C 354.234 303.572,354.339 303.425,354.185 303.175 C 354.033 302.930,353.576 302.817,353.169 302.924 C 352.174 303.184,351.860 302.073,352.210 299.526 C 352.393 298.199,352.350 297.584,352.086 297.747 C 351.527 298.092,351.241 297.165,351.496 295.832 C 351.628 295.142,351.510 294.592,351.188 294.393 C 350.901 294.215,350.667 293.425,350.667 292.635 C 350.667 291.846,350.517 291.200,350.333 291.200 C 350.150 291.200,350.000 290.581,350.000 289.824 C 350.000 289.067,349.820 288.336,349.600 288.200 C 349.380 288.064,349.200 287.333,349.200 286.576 C 349.200 285.819,349.020 285.200,348.800 285.200 C 348.580 285.200,348.400 284.761,348.400 284.224 C 348.400 283.687,348.220 283.136,348.000 283.000 C 347.780 282.864,347.600 282.213,347.600 281.553 C 347.600 280.855,347.433 280.456,347.200 280.600 C 346.967 280.744,346.800 280.337,346.800 279.624 C 346.800 278.951,346.620 278.400,346.400 278.400 C 346.180 278.400,346.000 278.051,346.000 277.624 C 346.000 277.197,345.820 276.736,345.600 276.600 C 345.380 276.464,345.200 276.022,345.200 275.617 C 345.200 275.212,344.660 273.855,344.000 272.600 C 343.340 271.345,342.800 270.140,342.800 269.921 C 342.800 269.702,342.466 269.046,342.058 268.462 C 341.383 267.496,340.722 265.599,340.829 264.938 C 340.852 264.792,340.586 264.512,340.236 264.316 C 339.886 264.120,339.600 263.777,339.600 263.552 C 339.600 263.328,339.043 262.334,338.361 261.344 C 337.680 260.354,337.229 259.438,337.359 259.308 C 337.489 259.178,337.236 258.820,336.797 258.513 C 336.359 258.206,336.000 257.620,336.000 257.211 C 336.000 256.801,335.853 256.407,335.672 256.333 C 335.344 256.200,332.228 251.854,331.317 250.259 C 331.051 249.794,330.589 249.231,330.289 249.007 C 329.990 248.783,329.488 248.013,329.173 247.295 C 328.858 246.578,328.285 245.891,327.900 245.768 C 327.515 245.646,327.200 245.277,327.200 244.948 C 327.200 244.619,325.966 243.101,324.458 241.575 C 322.949 240.049,321.789 238.800,321.879 238.800 C 322.304 238.800,311.982 228.995,310.400 227.897 C 309.410 227.209,308.365 226.321,308.077 225.923 C 307.790 225.525,307.310 225.200,307.011 225.200 C 306.712 225.200,305.958 224.660,305.335 224.000 C 304.712 223.340,303.977 222.800,303.701 222.800 C 303.426 222.800,303.200 222.620,303.200 222.400 C 303.200 222.180,302.949 222.000,302.643 222.000 C 302.336 222.000,301.987 221.744,301.867 221.430 C 301.747 221.117,301.032 220.568,300.278 220.210 C 299.525 219.853,298.531 219.209,298.071 218.780 C 297.610 218.351,297.056 218.000,296.840 218.000 C 296.174 218.000,293.600 216.346,293.600 215.918 C 293.600 215.696,293.343 215.613,293.029 215.733 C 292.715 215.854,292.277 215.733,292.055 215.466 C 291.832 215.198,290.388 214.368,288.844 213.621 C 287.300 212.874,286.119 212.131,286.219 211.969 C 286.319 211.807,286.061 211.764,285.646 211.872 C 285.230 211.981,284.769 211.874,284.622 211.635 C 284.474 211.396,284.003 211.200,283.576 211.200 C 283.149 211.200,282.799 211.065,282.797 210.900 C 282.793 210.541,280.856 209.600,280.120 209.600 C 279.834 209.600,279.600 209.420,279.600 209.200 C 279.600 208.980,279.060 208.800,278.400 208.800 C 277.740 208.800,277.200 208.620,277.200 208.400 C 277.200 208.180,276.750 208.000,276.200 208.000 C 275.650 208.000,275.200 207.820,275.200 207.600 C 275.200 207.380,274.761 207.200,274.224 207.200 C 273.159 207.200,272.544 206.605,273.193 206.204 C 273.716 205.881,273.721 205.200,273.200 205.200 C 272.980 205.200,272.845 205.425,272.900 205.700 C 272.956 205.981,272.519 206.255,271.900 206.327 C 271.295 206.396,270.800 206.261,270.800 206.027 C 270.800 205.792,270.260 205.600,269.600 205.600 C 268.940 205.600,268.400 205.420,268.400 205.200 C 268.400 204.980,267.680 204.800,266.800 204.800 C 265.920 204.800,265.200 204.620,265.200 204.400 C 265.200 204.180,264.550 204.000,263.757 204.000 C 262.417 204.000,262.331 203.928,262.564 203.000 C 262.709 202.423,262.643 202.000,262.408 202.000 C 262.183 202.000,262.045 202.225,262.100 202.500 C 262.226 203.132,260.127 203.403,259.451 202.842 C 259.175 202.613,258.099 202.443,257.059 202.464 C 255.103 202.503,254.278 202.170,255.090 201.668 C 255.397 201.478,255.430 201.176,255.185 200.789 C 254.872 200.294,254.811 200.312,254.806 200.900 C 254.802 201.344,254.471 201.616,253.900 201.644 C 253.405 201.668,252.402 201.738,251.670 201.799 C 250.825 201.869,250.263 201.708,250.128 201.358 C 249.973 200.953,249.155 200.820,247.058 200.856 C 242.207 200.942,240.037 200.434,242.900 199.882 C 243.588 199.750,243.509 199.696,242.567 199.654 C 241.888 199.625,241.231 199.702,241.106 199.827 " stroke="none" fill="#0484fc" fill-rule="evenodd"></path><path id="path2" d="M207.491 0.289 C 208.201 0.377,209.461 0.379,210.291 0.292 C 211.121 0.205,210.540 0.133,209.000 0.131 C 207.460 0.129,206.781 0.200,207.491 0.289 M214.600 0.834 C 213.416 1.102,213.420 1.106,214.876 1.153 C 215.688 1.179,216.445 1.050,216.559 0.867 C 216.803 0.472,216.240 0.463,214.600 0.834 M218.800 1.600 C 218.800 1.820,219.295 1.987,219.900 1.972 C 220.875 1.947,220.909 1.905,220.200 1.600 C 219.107 1.131,218.800 1.131,218.800 1.600 M221.800 2.400 C 221.654 2.636,222.095 2.797,222.876 2.794 C 223.878 2.789,224.054 2.693,223.600 2.400 C 222.822 1.897,222.111 1.897,221.800 2.400 M224.800 3.285 C 224.800 3.458,225.261 3.600,225.824 3.600 C 226.387 3.600,226.743 3.431,226.616 3.225 C 226.341 2.781,224.800 2.831,224.800 3.285 M230.000 4.800 C 230.000 5.020,230.270 5.200,230.600 5.200 C 230.930 5.200,231.200 5.020,231.200 4.800 C 231.200 4.580,230.930 4.400,230.600 4.400 C 230.270 4.400,230.000 4.580,230.000 4.800 M232.200 5.600 C 232.064 5.820,232.334 6.000,232.800 6.000 C 233.266 6.000,233.536 5.820,233.400 5.600 C 233.264 5.380,232.994 5.200,232.800 5.200 C 232.606 5.200,232.336 5.380,232.200 5.600 M238.320 8.080 C 238.693 8.453,238.907 8.453,239.280 8.080 C 239.653 7.707,239.547 7.600,238.800 7.600 C 238.053 7.600,237.947 7.707,238.320 8.080 M246.000 11.986 C 246.000 12.214,246.270 12.400,246.600 12.400 C 246.930 12.400,247.200 12.591,247.200 12.824 C 247.200 13.057,247.380 13.136,247.600 13.000 C 247.820 12.864,248.000 12.553,248.000 12.310 C 248.000 12.066,247.886 11.980,247.747 12.119 C 247.608 12.258,247.158 12.192,246.747 11.972 C 246.241 11.701,246.000 11.706,246.000 11.986 M256.190 18.648 C 256.547 19.004,256.959 19.174,257.107 19.026 C 257.256 18.878,257.112 18.589,256.788 18.384 C 255.843 17.787,255.487 17.944,256.190 18.648 M261.020 22.638 C 262.251 23.868,263.335 24.798,263.430 24.704 C 263.672 24.461,259.662 20.400,259.180 20.400 C 258.961 20.400,259.790 21.407,261.020 22.638 M267.600 28.655 C 267.600 29.170,269.530 31.003,269.794 30.739 C 269.903 30.631,269.454 30.026,268.796 29.396 C 268.138 28.766,267.600 28.433,267.600 28.655 M270.195 31.106 C 269.794 31.397,271.007 32.890,271.815 33.100 C 272.027 33.155,272.206 33.335,272.214 33.500 C 272.240 34.055,273.263 35.671,273.462 35.471 C 273.831 35.102,272.444 32.921,271.408 32.242 C 270.839 31.869,270.481 31.393,270.611 31.182 C 270.891 30.729,270.751 30.703,270.195 31.106 M274.190 36.648 C 274.547 37.004,274.959 37.174,275.107 37.026 C 275.256 36.878,275.112 36.589,274.788 36.384 C 273.843 35.787,273.487 35.944,274.190 36.648 M275.200 38.218 C 275.200 38.632,277.249 40.484,277.467 40.267 C 277.587 40.147,277.224 39.588,276.661 39.024 C 275.665 38.028,275.200 37.772,275.200 38.218 M285.600 55.800 C 285.600 56.130,285.780 56.400,286.000 56.400 C 286.220 56.400,286.400 56.130,286.400 55.800 C 286.400 55.470,286.220 55.200,286.000 55.200 C 285.780 55.200,285.600 55.470,285.600 55.800 M287.200 59.776 C 287.200 60.093,287.392 60.472,287.627 60.617 C 287.862 60.762,287.960 61.127,287.845 61.428 C 287.729 61.728,287.819 62.088,288.044 62.227 C 288.741 62.658,288.795 62.212,288.187 61.040 C 287.867 60.422,287.704 59.755,287.826 59.558 C 287.948 59.361,287.857 59.200,287.624 59.200 C 287.391 59.200,287.200 59.459,287.200 59.776 M289.374 66.300 C 289.497 67.138,290.113 67.075,290.240 66.211 C 290.289 65.875,290.091 65.600,289.800 65.600 C 289.509 65.600,289.317 65.915,289.374 66.300 M290.066 69.224 C 290.140 69.726,290.411 70.207,290.669 70.292 C 290.967 70.390,291.058 70.145,290.920 69.617 C 290.613 68.443,289.904 68.118,290.066 69.224 M291.600 76.176 C 291.600 76.959,291.780 77.600,292.000 77.600 C 292.220 77.600,292.400 77.071,292.400 76.424 C 292.400 75.777,292.220 75.136,292.000 75.000 C 291.762 74.853,291.600 75.329,291.600 76.176 M292.400 81.353 C 292.400 82.123,292.580 82.864,292.800 83.000 C 293.038 83.147,293.200 82.679,293.200 81.847 C 293.200 81.077,293.020 80.336,292.800 80.200 C 292.562 80.053,292.400 80.521,292.400 81.353 M293.234 93.100 C 293.214 96.459,293.356 98.800,293.580 98.800 C 294.031 98.800,294.027 89.894,293.575 88.408 C 293.397 87.823,293.254 89.794,293.234 93.100 M292.700 103.828 C 292.535 103.996,292.405 104.868,292.412 105.767 C 292.422 107.083,292.504 107.263,292.837 106.691 C 293.296 105.903,293.173 103.347,292.700 103.828 M291.600 110.400 C 291.600 111.280,291.787 112.000,292.016 112.000 C 292.251 112.000,292.391 111.302,292.338 110.400 C 292.286 109.520,292.099 108.800,291.922 108.800 C 291.745 108.800,291.600 109.520,291.600 110.400 M290.800 114.400 C 290.800 114.840,290.980 115.200,291.200 115.200 C 291.420 115.200,291.600 114.840,291.600 114.400 C 291.600 113.960,291.420 113.600,291.200 113.600 C 290.980 113.600,290.800 113.960,290.800 114.400 M290.144 117.002 C 290.006 117.360,290.098 117.858,290.347 118.107 C 290.596 118.356,290.814 118.479,290.831 118.380 C 290.847 118.281,290.921 117.886,290.995 117.502 C 291.172 116.580,290.465 116.165,290.144 117.002 M289.775 119.522 C 289.413 119.772,289.356 120.226,289.575 121.100 C 289.617 121.265,289.823 120.969,290.034 120.442 C 290.459 119.380,290.381 119.102,289.775 119.522 M287.666 124.900 C 287.722 125.175,287.550 125.794,287.283 126.276 C 286.843 127.070,287.273 128.073,287.725 127.307 C 288.225 126.458,288.430 124.400,288.014 124.400 C 287.767 124.400,287.611 124.625,287.666 124.900 M282.100 137.883 C 281.322 139.558,281.514 139.945,282.401 138.490 C 283.275 137.058,283.351 136.798,282.900 136.803 C 282.735 136.805,282.375 137.291,282.100 137.883 M278.400 144.000 C 278.400 144.747,278.507 144.853,278.880 144.480 C 279.253 144.107,279.253 143.893,278.880 143.520 C 278.507 143.147,278.400 143.253,278.400 144.000 M273.833 150.411 C 273.192 151.065,272.789 151.722,272.937 151.871 C 273.203 152.136,274.013 151.289,274.821 149.900 C 275.385 148.930,275.185 149.034,273.833 150.411 M271.637 153.478 C 271.107 153.985,270.854 154.400,271.075 154.400 C 271.520 154.400,273.024 152.865,272.764 152.676 C 272.674 152.610,272.166 152.971,271.637 153.478 M267.800 157.600 C 267.936 157.820,267.767 158.000,267.424 158.000 C 267.081 158.000,266.800 158.268,266.800 158.596 C 266.800 159.095,266.931 159.080,267.600 158.507 C 268.477 157.756,268.637 157.200,267.976 157.200 C 267.743 157.200,267.664 157.380,267.800 157.600 M264.500 160.777 C 264.005 161.190,263.600 161.636,263.600 161.768 C 263.600 162.166,265.170 161.055,265.380 160.509 C 265.629 159.860,265.583 159.874,264.500 160.777 M260.205 164.897 L 259.010 166.069 260.083 165.580 C 260.992 165.166,261.872 164.071,261.509 163.805 C 261.449 163.761,260.862 164.253,260.205 164.897 M257.260 167.051 C 256.743 167.602,256.390 168.124,256.477 168.210 C 256.669 168.403,258.800 166.608,258.800 166.253 C 258.800 165.749,258.181 166.069,257.260 167.051 M253.600 169.800 C 253.322 170.135,253.279 170.400,253.502 170.400 C 253.722 170.400,254.126 170.130,254.400 169.800 C 254.678 169.465,254.721 169.200,254.498 169.200 C 254.278 169.200,253.874 169.470,253.600 169.800 M249.134 172.669 C 248.768 172.766,248.367 173.109,248.243 173.432 C 248.063 173.900,248.173 173.936,248.787 173.607 C 249.404 173.276,250.388 172.272,249.924 172.446 C 249.856 172.472,249.500 172.572,249.134 172.669 M246.500 174.144 C 246.005 174.389,245.600 174.727,245.600 174.895 C 245.600 175.063,245.240 175.200,244.800 175.200 C 244.360 175.200,244.000 175.380,244.000 175.600 C 244.000 175.820,244.110 176.000,244.246 176.000 C 244.752 176.000,247.600 174.239,247.600 173.926 C 247.600 173.747,247.555 173.622,247.500 173.649 C 247.445 173.676,246.995 173.899,246.500 174.144 M242.400 176.400 C 242.400 176.620,242.771 176.800,243.224 176.800 C 243.677 176.800,243.936 176.620,243.800 176.400 C 243.664 176.180,243.293 176.000,242.976 176.000 C 242.659 176.000,242.400 176.180,242.400 176.400 M240.800 177.200 C 240.800 177.420,241.070 177.600,241.400 177.600 C 241.730 177.600,242.000 177.420,242.000 177.200 C 242.000 176.980,241.730 176.800,241.400 176.800 C 241.070 176.800,240.800 176.980,240.800 177.200 M239.200 178.000 C 239.200 178.220,238.810 178.400,238.333 178.400 C 237.857 178.400,237.592 178.525,237.745 178.678 C 238.177 179.111,239.200 179.171,239.200 178.765 C 239.200 178.564,239.470 178.400,239.800 178.400 C 240.130 178.400,240.400 178.220,240.400 178.000 C 240.400 177.780,240.130 177.600,239.800 177.600 C 239.470 177.600,239.200 177.780,239.200 178.000 M234.000 180.400 C 234.000 180.901,234.424 180.901,235.200 180.400 C 235.685 180.086,235.628 180.011,234.900 180.006 C 234.405 180.003,234.000 180.180,234.000 180.400 M230.000 181.965 C 230.000 182.371,231.023 182.311,231.455 181.878 C 231.608 181.725,231.343 181.600,230.867 181.600 C 230.390 181.600,230.000 181.764,230.000 181.965 M224.197 183.594 C 224.456 184.015,225.795 183.938,226.256 183.477 C 226.409 183.325,225.953 183.200,225.243 183.200 C 224.497 183.200,224.056 183.366,224.197 183.594 M221.397 184.394 C 221.656 184.815,222.995 184.738,223.456 184.277 C 223.609 184.125,223.153 184.000,222.443 184.000 C 221.697 184.000,221.256 184.166,221.397 184.394 M218.400 185.200 C 218.400 185.420,218.659 185.600,218.976 185.600 C 219.293 185.600,219.664 185.420,219.800 185.200 C 219.936 184.980,219.677 184.800,219.224 184.800 C 218.771 184.800,218.400 184.980,218.400 185.200 M212.920 185.854 C 213.335 186.269,215.200 186.360,215.200 185.965 C 215.200 185.764,214.630 185.600,213.933 185.600 C 213.237 185.600,212.781 185.714,212.920 185.854 M208.700 186.233 C 208.635 186.298,207.369 186.391,205.887 186.439 C 202.304 186.555,202.836 186.941,206.714 187.037 C 209.919 187.117,211.800 186.684,209.859 186.313 C 209.287 186.204,208.765 186.168,208.700 186.233 M200.001 199.400 C 200.000 199.827,240.276 199.857,240.703 199.431 C 240.986 199.148,241.872 199.162,218.900 199.073 C 206.519 199.025,200.001 199.138,200.001 199.400 M247.166 200.030 C 246.776 200.276,247.088 200.390,248.167 200.394 C 249.761 200.400,249.948 200.098,248.520 199.823 C 248.087 199.740,247.477 199.833,247.166 200.030 M251.794 200.810 C 251.652 201.040,252.247 201.200,253.243 201.200 C 255.115 201.200,255.109 200.778,253.234 200.559 C 252.574 200.483,251.927 200.595,251.794 200.810 M257.600 201.642 C 257.600 202.075,259.077 202.124,259.338 201.700 C 259.440 201.535,259.091 201.374,258.562 201.342 C 258.033 201.311,257.600 201.446,257.600 201.642 M263.465 203.304 C 263.568 203.472,264.168 203.569,264.799 203.521 C 265.429 203.473,265.861 203.299,265.759 203.134 C 265.657 202.969,265.057 202.872,264.426 202.917 C 263.795 202.963,263.362 203.137,263.465 203.304 M266.590 203.984 C 266.732 204.213,267.317 204.400,267.890 204.400 C 269.144 204.400,268.999 204.208,267.466 203.840 C 266.723 203.662,266.421 203.711,266.590 203.984 M273.600 206.400 C 273.600 206.620,274.005 206.797,274.500 206.794 C 275.228 206.789,275.285 206.714,274.800 206.400 C 274.024 205.899,273.600 205.899,273.600 206.400 M278.400 208.000 C 278.400 208.220,278.670 208.400,279.000 208.400 C 279.330 208.400,279.600 208.220,279.600 208.000 C 279.600 207.780,279.330 207.600,279.000 207.600 C 278.670 207.600,278.400 207.780,278.400 208.000 M280.400 208.800 C 280.400 209.020,280.670 209.200,281.000 209.200 C 281.330 209.200,281.600 209.020,281.600 208.800 C 281.600 208.580,281.330 208.400,281.000 208.400 C 280.670 208.400,280.400 208.580,280.400 208.800 M283.600 210.400 C 283.600 210.620,283.870 210.800,284.200 210.800 C 284.530 210.800,284.800 210.620,284.800 210.400 C 284.800 210.180,284.530 210.000,284.200 210.000 C 283.870 210.000,283.600 210.180,283.600 210.400 M286.800 212.000 C 286.800 212.220,287.070 212.400,287.400 212.400 C 287.730 212.400,288.000 212.220,288.000 212.000 C 288.000 211.780,287.730 211.600,287.400 211.600 C 287.070 211.600,286.800 211.780,286.800 212.000 M290.400 213.600 C 290.400 213.820,290.565 214.000,290.767 214.000 C 290.969 214.000,291.464 214.125,291.867 214.278 C 292.554 214.538,292.557 214.512,291.929 213.878 C 291.183 213.126,290.400 212.983,290.400 213.600 M294.400 215.495 C 294.400 215.884,296.014 216.919,296.251 216.682 C 296.347 216.586,295.969 216.210,295.412 215.845 C 294.856 215.480,294.400 215.322,294.400 215.495 M302.624 220.987 C 303.051 221.310,303.580 221.575,303.800 221.575 C 304.020 221.575,303.851 221.310,303.424 220.987 C 302.996 220.664,302.467 220.400,302.247 220.400 C 302.027 220.400,302.196 220.664,302.624 220.987 M304.286 221.848 C 303.952 222.181,305.009 223.203,305.671 223.187 C 306.030 223.179,305.977 223.006,305.506 222.648 C 305.125 222.358,304.930 222.004,305.073 221.860 C 305.216 221.717,305.153 221.600,304.933 221.600 C 304.713 221.600,304.422 221.711,304.286 221.848 M307.200 224.229 C 307.200 224.653,308.436 225.697,308.667 225.467 C 308.792 225.341,308.617 224.960,308.276 224.619 C 307.641 223.984,307.200 223.824,307.200 224.229 M309.412 225.981 C 309.269 226.211,309.361 226.400,309.616 226.400 C 309.871 226.400,310.601 226.959,311.240 227.642 C 311.878 228.326,312.400 228.713,312.400 228.504 C 312.400 227.580,309.787 225.374,309.412 225.981 M312.800 229.224 C 312.800 229.457,312.980 229.536,313.200 229.400 C 313.420 229.264,313.600 229.343,313.600 229.576 C 313.600 229.809,313.802 230.000,314.049 230.000 C 314.359 230.000,314.344 229.815,314.000 229.400 C 313.422 228.703,312.800 228.612,312.800 229.224 M319.890 235.043 C 319.756 235.177,320.347 236.032,321.204 236.943 C 322.060 237.854,323.132 239.050,323.586 239.600 L 324.413 240.600 323.942 239.500 C 323.683 238.895,323.320 238.400,323.136 238.400 C 322.951 238.400,322.800 238.113,322.800 237.763 C 322.800 237.412,322.455 237.035,322.034 236.925 C 321.613 236.815,321.159 236.291,321.026 235.762 C 320.790 234.820,320.375 234.558,319.890 235.043 M325.200 241.440 C 325.200 241.571,325.706 242.156,326.325 242.740 C 326.943 243.323,327.914 244.489,328.482 245.330 C 329.084 246.222,329.626 246.681,329.781 246.430 C 329.928 246.194,329.861 246.000,329.634 246.000 C 329.407 246.000,328.958 245.492,328.636 244.870 C 327.700 243.060,325.200 240.564,325.200 241.440 M330.013 247.100 C 330.039 247.718,331.203 248.930,331.493 248.641 C 331.658 248.475,331.476 248.162,331.088 247.945 C 330.700 247.728,330.488 247.382,330.615 247.175 C 330.743 246.969,330.657 246.800,330.424 246.800 C 330.191 246.800,330.006 246.935,330.013 247.100 M333.200 251.476 C 333.200 251.681,333.515 252.198,333.900 252.625 C 334.285 253.051,334.855 253.895,335.168 254.500 C 335.480 255.105,335.872 255.600,336.039 255.600 C 336.442 255.600,334.540 252.214,333.787 251.589 C 333.464 251.321,333.200 251.270,333.200 251.476 M337.298 257.900 C 337.388 258.065,337.712 258.785,338.019 259.500 C 338.325 260.215,338.851 260.797,339.188 260.794 C 339.600 260.790,339.650 260.692,339.340 260.494 C 339.087 260.332,338.817 259.840,338.740 259.400 C 338.663 258.960,338.388 258.375,338.129 258.100 C 337.616 257.556,337.032 257.416,337.298 257.900 M339.722 262.400 C 340.202 263.671,340.800 264.004,340.800 263.000 C 340.800 262.670,340.620 262.400,340.400 262.400 C 340.180 262.400,340.000 262.130,340.000 261.800 C 340.000 261.470,339.836 261.200,339.635 261.200 C 339.434 261.200,339.473 261.740,339.722 262.400 M341.812 265.717 C 341.641 266.112,341.613 266.547,341.751 266.684 C 342.157 267.090,342.484 266.520,342.297 265.731 C 342.132 265.033,342.110 265.032,341.812 265.717 M342.692 267.042 C 342.531 267.202,342.400 267.609,342.400 267.947 C 342.400 268.397,342.518 268.442,342.845 268.115 C 343.090 267.870,343.221 267.463,343.137 267.210 C 343.052 266.957,342.852 266.881,342.692 267.042 M344.009 270.857 C 344.004 271.219,344.267 271.617,344.593 271.742 C 344.931 271.872,345.085 272.235,344.950 272.585 C 344.821 272.923,344.914 273.200,345.157 273.200 C 345.830 273.200,345.672 272.315,344.800 271.200 C 344.209 270.445,344.016 270.361,344.009 270.857 M345.600 274.800 C 345.600 275.240,345.780 275.600,346.000 275.600 C 346.220 275.600,346.400 275.240,346.400 274.800 C 346.400 274.360,346.220 274.000,346.000 274.000 C 345.780 274.000,345.600 274.360,345.600 274.800 M347.200 278.800 C 347.200 279.240,347.369 279.600,347.575 279.600 C 347.781 279.600,347.923 279.240,347.890 278.800 C 347.857 278.360,347.688 278.000,347.515 278.000 C 347.342 278.000,347.200 278.360,347.200 278.800 M348.292 280.642 C 348.131 280.802,348.000 281.209,348.000 281.547 C 348.000 281.997,348.118 282.042,348.445 281.715 C 348.690 281.470,348.821 281.063,348.737 280.810 C 348.652 280.557,348.452 280.481,348.292 280.642 M348.800 283.200 C 348.800 283.947,348.907 284.053,349.280 283.680 C 349.653 283.307,349.653 283.093,349.280 282.720 C 348.907 282.347,348.800 282.453,348.800 283.200 M349.892 285.042 C 349.731 285.202,349.600 285.609,349.600 285.947 C 349.600 286.397,349.718 286.442,350.045 286.115 C 350.290 285.870,350.421 285.463,350.337 285.210 C 350.252 284.957,350.052 284.881,349.892 285.042 M350.400 289.000 C 350.400 289.596,350.572 289.941,350.800 289.800 C 351.020 289.664,351.200 289.304,351.200 289.000 C 351.200 288.696,351.020 288.336,350.800 288.200 C 350.572 288.059,350.400 288.404,350.400 289.000 M352.012 295.020 C 352.023 296.054,352.077 296.109,352.454 295.461 C 352.761 294.932,352.758 294.598,352.441 294.281 C 352.120 293.960,352.003 294.159,352.012 295.020 M352.738 298.827 C 352.628 299.393,352.668 300.203,352.826 300.627 C 353.285 301.858,353.665 300.451,353.267 299.000 L 352.937 297.800 352.738 298.827 M353.522 304.095 C 353.282 305.351,353.760 306.402,354.132 305.434 C 354.265 305.086,354.228 304.405,354.049 303.921 C 353.732 303.064,353.718 303.068,353.522 304.095 M354.295 310.496 C 354.119 310.955,354.138 313.979,354.340 317.700 C 354.506 320.754,355.002 318.238,354.955 314.583 C 354.902 310.505,354.721 309.386,354.295 310.496 " stroke="none" fill="#0494fc" fill-rule="evenodd"></path><path id="path3" d="M200.002 93.600 L 200.007 187.200 201.827 187.200 C 203.167 187.200,203.573 187.068,203.365 186.700 C 203.139 186.300,203.190 186.300,203.621 186.700 C 203.918 186.975,204.349 187.197,204.580 187.194 C 204.811 187.191,204.730 187.013,204.400 186.800 C 203.977 186.527,204.538 186.410,206.300 186.406 C 207.683 186.403,208.800 186.223,208.800 186.003 C 208.800 185.760,207.176 185.644,204.599 185.703 L 200.399 185.800 200.399 93.142 L 200.400 0.484 201.700 0.751 C 202.940 1.005,207.408 1.021,210.400 0.782 C 212.174 0.641,206.861 0.124,202.898 0.052 L 199.997 0.000 200.002 93.600 M212.184 0.827 C 211.796 1.454,212.019 1.545,214.211 1.661 C 215.305 1.718,216.424 1.929,216.698 2.130 C 216.972 2.330,217.917 2.484,218.798 2.472 C 219.679 2.460,220.400 2.619,220.400 2.825 C 220.400 3.031,221.165 3.173,222.100 3.140 C 223.306 3.098,223.479 3.032,222.693 2.913 C 222.084 2.821,221.690 2.578,221.817 2.373 C 221.945 2.166,221.325 2.000,220.424 2.000 C 219.531 2.000,218.800 1.820,218.800 1.600 C 218.800 1.380,218.440 1.200,218.000 1.200 C 217.560 1.200,217.200 1.416,217.200 1.680 C 217.200 2.053,217.093 2.053,216.720 1.680 C 216.456 1.416,215.601 1.179,214.820 1.153 L 213.400 1.105 214.600 0.800 C 215.733 0.512,215.707 0.492,214.124 0.447 C 213.202 0.421,212.329 0.592,212.184 0.827 M223.855 3.400 C 223.675 3.871,223.966 4.000,225.213 4.000 C 226.086 4.000,226.800 4.180,226.800 4.400 C 226.800 4.620,227.340 4.800,228.000 4.800 C 228.660 4.800,229.200 4.980,229.200 5.200 C 229.200 5.420,229.650 5.600,230.200 5.600 C 230.750 5.600,231.200 5.780,231.200 6.000 C 231.200 6.220,231.740 6.400,232.400 6.400 C 233.060 6.400,233.600 6.580,233.600 6.800 C 233.600 7.020,234.050 7.200,234.600 7.200 C 235.150 7.200,235.600 7.380,235.600 7.600 C 235.600 7.820,235.960 8.000,236.400 8.000 C 236.840 8.000,237.200 8.180,237.200 8.400 C 237.200 8.620,237.434 8.800,237.720 8.800 C 238.456 8.800,240.393 9.741,240.397 10.100 C 240.399 10.265,240.760 10.400,241.200 10.400 C 241.640 10.400,242.000 10.580,242.000 10.800 C 242.000 11.020,242.360 11.200,242.800 11.200 C 243.240 11.200,243.600 11.380,243.600 11.600 C 243.600 11.820,243.949 12.000,244.376 12.000 C 244.803 12.000,245.261 12.175,245.393 12.389 C 245.526 12.603,246.295 13.092,247.104 13.476 C 247.912 13.860,248.894 14.494,249.287 14.887 C 249.679 15.279,250.317 15.600,250.704 15.600 C 251.091 15.600,251.632 15.960,251.907 16.400 C 252.182 16.840,252.630 17.201,252.903 17.202 C 253.177 17.203,253.975 17.743,254.678 18.402 C 255.381 19.061,256.145 19.600,256.375 19.600 C 256.605 19.600,257.018 19.960,257.293 20.400 C 257.568 20.840,257.927 21.200,258.092 21.200 C 258.605 21.200,259.961 22.430,265.505 27.928 C 268.460 30.858,270.976 33.158,271.096 33.038 C 271.216 32.918,271.110 32.573,270.860 32.273 C 270.611 31.972,270.535 31.598,270.691 31.442 C 270.848 31.286,270.621 31.286,270.188 31.443 C 269.755 31.599,269.525 31.589,269.678 31.419 C 269.831 31.250,269.416 30.657,268.756 30.101 C 268.096 29.546,267.650 28.846,267.765 28.546 C 267.881 28.246,267.793 28.000,267.571 28.000 C 267.350 28.000,266.483 27.280,265.646 26.400 C 264.809 25.520,263.911 24.800,263.651 24.800 C 263.390 24.800,261.847 23.465,260.221 21.834 C 258.595 20.203,257.169 18.964,257.052 19.082 C 256.934 19.199,256.568 19.025,256.238 18.695 C 255.908 18.365,255.750 17.984,255.886 17.848 C 256.022 17.711,255.733 17.600,255.243 17.600 C 254.751 17.600,254.463 17.421,254.600 17.200 C 254.736 16.980,254.477 16.800,254.024 16.800 C 253.571 16.800,253.200 16.609,253.200 16.376 C 253.200 16.143,253.425 16.088,253.700 16.253 C 254.040 16.457,254.024 16.337,253.651 15.877 C 253.349 15.505,252.539 15.197,251.851 15.194 C 250.896 15.189,250.742 15.096,251.200 14.800 C 251.697 14.479,251.662 14.411,250.996 14.406 C 250.554 14.403,249.977 14.055,249.714 13.633 C 249.405 13.139,248.874 12.906,248.217 12.978 C 247.658 13.040,247.200 12.935,247.200 12.745 C 247.200 12.555,246.930 12.400,246.600 12.400 C 246.270 12.400,246.000 12.220,246.000 12.000 C 246.000 11.780,245.711 11.600,245.357 11.600 C 244.983 11.600,244.801 11.375,244.921 11.062 C 245.068 10.677,244.854 10.577,244.163 10.709 C 243.611 10.815,243.200 10.703,243.200 10.447 C 243.200 10.201,242.739 10.000,242.176 10.000 C 241.596 10.000,241.260 9.827,241.400 9.600 C 241.540 9.373,241.204 9.200,240.624 9.200 C 240.018 9.200,239.641 8.996,239.700 8.700 C 239.756 8.419,239.491 8.252,239.095 8.319 C 238.707 8.384,238.290 8.179,238.169 7.863 C 238.032 7.506,237.631 7.371,237.112 7.507 C 236.542 7.656,236.366 7.578,236.561 7.263 C 236.753 6.952,236.459 6.800,235.666 6.800 C 235.017 6.800,234.391 6.552,234.274 6.249 C 234.136 5.890,233.685 5.771,232.972 5.907 C 232.216 6.052,231.968 5.976,232.164 5.658 C 232.353 5.352,232.041 5.200,231.224 5.200 C 230.551 5.200,230.000 5.020,230.000 4.800 C 230.000 4.580,229.539 4.400,228.976 4.400 C 228.396 4.400,228.060 4.227,228.200 4.000 C 228.351 3.756,227.737 3.600,226.624 3.600 C 225.621 3.600,224.800 3.420,224.800 3.200 C 224.800 2.582,224.113 2.727,223.855 3.400 M271.351 33.383 C 271.192 33.798,271.310 34.224,271.642 34.434 C 271.949 34.629,272.046 34.791,271.858 34.794 C 271.669 34.797,272.074 35.322,272.758 35.960 C 273.441 36.599,274.002 37.364,274.004 37.660 C 274.006 37.957,274.546 38.625,275.204 39.145 C 275.862 39.665,276.400 40.411,276.400 40.802 C 276.400 41.194,276.668 41.617,276.995 41.743 C 277.322 41.868,277.905 42.698,278.289 43.585 C 278.674 44.473,279.126 45.200,279.294 45.200 C 279.462 45.200,279.600 45.470,279.600 45.800 C 279.600 46.130,279.780 46.400,280.000 46.400 C 280.220 46.400,280.400 46.760,280.400 47.200 C 280.400 47.640,280.580 48.000,280.800 48.000 C 281.020 48.000,281.200 48.270,281.200 48.600 C 281.200 48.930,281.380 49.200,281.600 49.200 C 281.820 49.200,282.000 49.560,282.000 50.000 C 282.000 50.440,282.180 50.800,282.400 50.800 C 282.620 50.800,282.800 51.149,282.800 51.576 C 282.800 52.003,282.983 52.466,283.207 52.604 C 283.430 52.742,283.522 53.002,283.411 53.182 C 283.300 53.362,283.477 53.732,283.804 54.004 C 284.132 54.276,284.400 54.746,284.400 55.049 C 284.400 55.352,284.591 55.600,284.824 55.600 C 285.057 55.600,285.145 55.765,285.020 55.968 C 284.895 56.170,285.076 56.619,285.422 56.965 C 285.768 57.311,285.931 57.787,285.785 58.024 C 285.638 58.261,285.885 58.550,286.338 58.668 C 287.036 58.850,287.086 58.997,286.678 59.665 C 286.292 60.298,286.318 60.540,286.810 60.924 C 287.146 61.186,287.412 61.670,287.402 62.000 C 287.361 63.272,288.352 65.406,289.049 65.546 C 289.673 65.672,289.700 65.602,289.243 65.051 C 288.950 64.699,288.808 64.155,288.928 63.843 C 289.048 63.531,288.802 62.964,288.382 62.584 C 287.962 62.204,287.720 61.729,287.844 61.529 C 287.968 61.329,287.853 60.905,287.590 60.588 C 287.326 60.270,287.213 59.743,287.338 59.417 C 287.464 59.090,287.304 58.561,286.983 58.240 C 286.662 57.919,286.400 57.374,286.400 57.029 C 286.400 56.683,286.220 56.400,286.000 56.400 C 285.780 56.400,285.600 55.939,285.600 55.376 C 285.600 54.796,285.427 54.460,285.200 54.600 C 284.980 54.736,284.800 54.477,284.800 54.024 C 284.800 53.571,284.620 53.200,284.400 53.200 C 284.180 53.200,284.000 52.966,284.000 52.680 C 284.000 51.850,283.038 50.007,282.600 49.997 C 282.380 49.992,282.470 49.813,282.800 49.600 C 283.200 49.342,283.233 49.210,282.900 49.206 C 282.625 49.203,282.400 48.919,282.400 48.576 C 282.400 48.233,282.220 48.064,282.000 48.200 C 281.780 48.336,281.600 48.257,281.600 48.024 C 281.600 47.791,281.825 47.588,282.100 47.573 C 282.375 47.558,282.195 47.351,281.700 47.112 C 281.195 46.868,280.797 46.309,280.794 45.839 C 280.789 45.151,280.718 45.108,280.400 45.600 C 280.086 46.085,280.011 46.028,280.006 45.300 C 280.003 44.805,279.820 44.400,279.600 44.400 C 279.380 44.400,279.200 44.040,279.200 43.600 C 279.200 43.160,279.020 42.800,278.800 42.800 C 278.580 42.800,278.400 42.519,278.400 42.176 C 278.400 41.833,278.220 41.664,278.000 41.800 C 277.780 41.936,277.600 41.756,277.600 41.400 C 277.600 41.013,277.785 40.867,278.062 41.038 C 278.348 41.215,278.415 41.148,278.238 40.862 C 278.081 40.608,277.775 40.400,277.558 40.400 C 276.677 40.400,275.057 38.337,275.642 37.960 C 276.079 37.678,276.000 37.545,275.277 37.347 C 274.702 37.190,274.436 36.884,274.570 36.535 C 274.700 36.195,274.416 35.834,273.847 35.618 C 273.034 35.309,272.350 34.424,272.235 33.533 C 272.146 32.851,271.591 32.757,271.351 33.383 M288.875 67.300 C 288.973 68.322,289.190 68.610,289.888 68.645 L 290.776 68.690 290.000 67.600 C 289.573 67.000,289.338 66.395,289.478 66.255 C 289.619 66.115,289.512 66.000,289.241 66.000 C 288.927 66.000,288.795 66.470,288.875 67.300 M289.672 70.112 C 289.742 70.724,289.980 71.235,290.200 71.246 C 290.420 71.258,290.825 71.455,291.100 71.683 C 291.875 72.326,291.696 71.884,290.572 70.378 L 289.543 69.000 289.672 70.112 M290.400 73.553 C 290.400 73.968,290.730 74.393,291.134 74.499 C 291.725 74.653,291.833 74.506,291.687 73.745 C 291.473 72.625,290.400 72.465,290.400 73.553 M291.264 77.051 C 291.192 79.353,292.159 80.931,292.323 78.780 C 292.372 78.131,292.241 77.600,292.032 77.600 C 291.822 77.600,291.578 77.015,291.489 76.300 C 291.376 75.384,291.309 75.606,291.264 77.051 M292.060 82.600 C 292.005 84.861,292.323 86.400,292.847 86.400 C 293.314 86.400,293.303 83.467,292.834 82.980 C 292.632 82.771,292.387 82.150,292.288 81.600 C 292.190 81.050,292.087 81.500,292.060 82.600 M292.951 93.600 C 292.951 96.130,293.016 97.165,293.096 95.900 C 293.175 94.635,293.175 92.565,293.096 91.300 C 293.016 90.035,292.951 91.070,292.951 93.600 M292.279 100.293 C 292.182 100.462,292.103 102.040,292.104 103.800 C 292.104 105.560,292.184 106.370,292.281 105.600 C 292.378 104.830,292.624 104.029,292.829 103.820 C 293.311 103.326,293.311 100.516,292.828 100.217 C 292.623 100.091,292.376 100.125,292.279 100.293 M291.467 107.467 C 291.320 107.613,291.229 108.558,291.264 109.567 C 291.315 111.032,291.360 111.139,291.489 110.100 C 291.578 109.385,291.819 108.800,292.025 108.800 C 292.231 108.800,292.400 108.440,292.400 108.000 C 292.400 107.203,291.974 106.960,291.467 107.467 M290.642 112.235 C 290.509 112.582,290.400 113.218,290.400 113.648 C 290.400 114.665,291.413 113.822,291.495 112.738 C 291.566 111.790,290.952 111.428,290.642 112.235 M290.150 115.238 C 289.903 115.547,289.599 116.340,289.474 117.000 C 289.350 117.660,289.127 118.695,288.978 119.300 C 288.798 120.030,288.865 120.400,289.177 120.400 C 289.436 120.400,289.548 120.239,289.426 120.042 C 289.304 119.845,289.463 119.585,289.780 119.463 C 290.155 119.319,290.288 118.875,290.162 118.181 C 290.056 117.596,290.171 116.876,290.418 116.579 C 290.664 116.281,290.806 115.732,290.733 115.357 C 290.621 114.783,290.529 114.764,290.150 115.238 M288.145 121.400 C 288.018 121.730,288.014 122.258,288.135 122.574 C 288.256 122.890,288.156 123.215,287.912 123.296 C 287.135 123.555,287.252 124.629,288.058 124.629 C 288.514 124.629,288.741 124.422,288.622 124.114 C 288.514 123.831,288.606 123.600,288.827 123.600 C 289.086 123.600,289.077 123.318,288.800 122.800 C 288.458 122.161,288.496 122.000,288.986 122.000 C 289.324 122.000,289.600 121.730,289.600 121.400 C 289.600 121.070,289.324 120.800,288.987 120.800 C 288.651 120.800,288.271 121.070,288.145 121.400 M286.667 125.467 C 286.302 125.831,286.329 126.800,286.704 126.800 C 286.871 126.800,287.232 126.440,287.507 126.000 C 288.008 125.198,287.352 124.781,286.667 125.467 M285.752 127.781 C 285.629 128.100,285.633 128.530,285.760 128.736 C 285.887 128.941,285.725 129.330,285.400 129.600 C 285.075 129.870,284.920 130.270,285.056 130.490 C 285.191 130.710,285.140 131.004,284.942 131.145 C 284.743 131.285,283.777 133.020,282.794 135.000 C 281.811 136.980,280.871 138.660,280.704 138.733 C 280.537 138.807,280.400 139.122,280.400 139.433 C 280.400 139.745,280.264 140.000,280.098 140.000 C 279.931 140.000,279.536 140.585,279.220 141.300 C 278.903 142.015,278.489 142.780,278.299 143.000 C 278.108 143.220,277.606 143.940,277.182 144.600 C 276.758 145.260,276.184 146.149,275.906 146.576 C 275.628 147.004,274.995 147.777,274.500 148.295 C 274.005 148.813,273.600 149.389,273.600 149.576 C 273.600 149.763,273.105 150.466,272.500 151.138 C 271.895 151.810,270.860 153.028,270.200 153.843 C 268.807 155.565,261.308 163.200,261.010 163.200 C 260.766 163.200,259.430 164.281,258.168 165.500 C 257.656 165.995,257.048 166.400,256.818 166.400 C 256.588 166.400,256.400 166.591,256.400 166.824 C 256.400 167.057,256.234 167.145,256.032 167.020 C 255.830 166.895,255.309 167.244,254.874 167.796 C 254.440 168.348,253.926 168.800,253.732 168.800 C 253.537 168.800,252.826 169.304,252.151 169.921 C 251.476 170.537,250.716 170.972,250.462 170.887 C 250.208 170.803,250.000 170.938,250.000 171.187 C 250.000 171.437,249.474 171.825,248.832 172.049 C 247.520 172.506,247.101 173.199,247.631 174.036 C 247.905 174.469,247.989 174.479,247.994 174.076 C 247.997 173.788,248.178 173.663,248.395 173.797 C 248.614 173.932,248.693 173.788,248.573 173.473 C 248.438 173.122,248.677 172.821,249.200 172.684 C 249.805 172.526,249.954 172.601,249.723 172.950 C 249.545 173.218,249.674 173.145,250.008 172.788 C 250.342 172.431,250.882 172.222,251.208 172.324 C 251.534 172.426,251.674 172.373,251.519 172.207 C 251.365 172.041,251.487 171.656,251.790 171.352 C 252.479 170.664,252.949 170.631,252.547 171.300 C 252.348 171.631,252.479 171.612,252.933 171.243 C 253.310 170.937,253.527 170.593,253.413 170.480 C 252.992 170.059,254.133 169.199,255.149 169.172 C 256.095 169.147,256.120 169.110,255.400 168.800 C 254.667 168.485,254.662 168.454,255.340 168.428 C 255.746 168.413,256.601 167.841,257.240 167.157 C 257.924 166.425,258.642 166.007,258.988 166.140 C 259.310 166.264,259.698 166.165,259.849 165.921 C 260.030 165.628,259.932 165.588,259.562 165.804 C 259.253 165.985,259.540 165.595,260.200 164.939 C 260.963 164.180,261.507 163.901,261.694 164.173 C 261.858 164.411,261.990 164.192,261.994 163.676 C 261.997 163.164,262.178 162.863,262.400 163.000 C 262.620 163.136,262.800 162.956,262.800 162.600 C 262.800 162.244,262.980 162.064,263.200 162.200 C 263.420 162.336,263.600 162.210,263.600 161.920 C 263.600 161.451,265.358 160.023,265.429 160.434 C 265.505 160.879,266.800 159.174,266.800 158.629 C 266.800 158.283,267.081 158.000,267.424 158.000 C 267.798 158.000,267.932 157.813,267.758 157.532 C 267.560 157.211,267.692 157.150,268.179 157.337 C 268.722 157.545,268.831 157.457,268.640 156.960 C 268.464 156.501,268.562 156.377,268.975 156.535 C 269.387 156.693,269.486 156.569,269.312 156.114 C 269.147 155.684,269.220 155.565,269.532 155.758 C 269.813 155.932,270.000 155.798,270.000 155.424 C 270.000 155.081,270.217 154.845,270.482 154.900 C 270.747 154.955,270.972 154.820,270.982 154.600 C 270.992 154.380,271.405 153.795,271.900 153.300 C 272.395 152.805,272.800 152.174,272.800 151.899 C 272.800 151.623,273.340 150.888,274.000 150.265 C 274.660 149.642,275.200 148.877,275.200 148.566 C 275.200 148.255,275.500 148.000,275.867 148.000 C 276.233 148.000,276.424 147.891,276.291 147.757 C 275.974 147.440,276.909 146.429,277.300 146.666 C 277.465 146.765,277.600 146.376,277.600 145.800 C 277.600 145.204,277.772 144.859,278.000 145.000 C 278.228 145.141,278.400 144.796,278.400 144.200 C 278.400 143.604,278.572 143.259,278.800 143.400 C 279.020 143.536,279.200 143.367,279.200 143.024 C 279.200 142.681,279.380 142.400,279.600 142.400 C 279.820 142.400,280.000 142.029,280.000 141.576 C 280.000 141.123,280.180 140.864,280.400 141.000 C 280.620 141.136,280.800 140.967,280.800 140.624 C 280.800 140.281,280.980 140.000,281.200 140.000 C 281.420 140.000,281.600 139.766,281.600 139.480 C 281.600 138.744,282.541 136.807,282.900 136.803 C 283.065 136.801,283.200 136.440,283.200 136.000 C 283.200 135.560,283.380 135.200,283.600 135.200 C 283.820 135.200,284.000 134.930,284.000 134.600 C 284.000 134.270,284.180 134.000,284.400 134.000 C 284.620 134.000,284.800 133.539,284.800 132.976 C 284.800 132.396,284.973 132.060,285.200 132.200 C 285.428 132.341,285.600 131.996,285.600 131.400 C 285.600 130.804,285.772 130.459,286.000 130.600 C 286.234 130.745,286.400 130.330,286.400 129.600 C 286.400 128.870,286.566 128.455,286.800 128.600 C 287.020 128.736,287.200 128.477,287.200 128.024 C 287.200 127.079,286.092 126.894,285.752 127.781 M245.200 174.142 C 244.430 174.596,243.740 175.110,243.667 175.284 C 243.593 175.458,243.098 175.600,242.567 175.600 C 242.035 175.600,241.600 175.780,241.600 176.000 C 241.600 176.220,241.330 176.400,241.000 176.400 C 240.670 176.400,240.414 176.715,240.432 177.100 C 240.450 177.518,240.544 177.599,240.665 177.300 C 240.776 177.025,241.212 176.800,241.633 176.800 C 242.055 176.800,242.400 176.620,242.400 176.400 C 242.400 176.180,242.760 176.000,243.200 176.000 C 243.640 176.000,244.000 175.820,244.000 175.600 C 244.000 175.380,244.360 175.200,244.800 175.200 C 245.240 175.200,245.600 175.020,245.600 174.800 C 245.600 174.580,245.859 174.400,246.176 174.400 C 246.837 174.400,247.365 173.739,246.907 173.486 C 246.738 173.393,245.970 173.688,245.200 174.142 M237.800 178.000 C 237.140 178.408,236.285 178.755,235.900 178.771 C 235.515 178.787,235.200 178.980,235.200 179.200 C 235.200 179.420,234.660 179.600,234.000 179.600 C 233.340 179.600,232.800 179.780,232.800 180.000 C 232.800 180.220,232.451 180.400,232.024 180.400 C 231.597 180.400,231.136 180.580,231.000 180.800 C 230.864 181.020,230.313 181.200,229.776 181.200 C 229.239 181.200,228.800 181.369,228.800 181.576 C 228.800 181.783,228.175 182.008,227.411 182.076 C 226.295 182.176,226.095 182.317,226.395 182.797 C 226.691 183.272,226.868 183.292,227.263 182.897 C 227.537 182.623,228.264 182.400,228.880 182.400 C 229.496 182.400,230.000 182.220,230.000 182.000 C 230.000 181.780,230.450 181.600,231.000 181.600 C 231.550 181.600,232.000 181.420,232.000 181.200 C 232.000 180.980,232.450 180.800,233.000 180.800 C 233.550 180.800,234.000 180.620,234.000 180.400 C 234.000 180.180,234.450 180.000,235.000 180.000 C 235.550 180.000,236.000 179.820,236.000 179.600 C 236.000 179.380,236.461 179.200,237.024 179.200 C 237.604 179.200,237.940 179.027,237.800 178.800 C 237.664 178.580,237.846 178.400,238.205 178.400 C 238.564 178.400,239.127 178.130,239.457 177.800 C 240.319 176.938,239.324 177.058,237.800 178.000 M223.000 183.200 C 222.864 183.420,222.234 183.600,221.600 183.600 C 220.966 183.600,220.329 183.791,220.186 184.023 C 220.036 184.265,219.429 184.338,218.771 184.194 C 217.256 183.861,215.978 184.278,216.260 185.013 C 216.490 185.612,218.400 185.676,218.400 185.084 C 218.400 184.896,218.805 184.776,219.300 184.816 C 220.932 184.948,221.651 184.806,221.400 184.400 C 221.250 184.158,221.804 184.000,222.800 184.000 C 223.716 184.000,224.345 183.835,224.217 183.627 C 224.090 183.422,224.484 183.179,225.093 183.087 C 226.007 182.949,225.942 182.909,224.724 182.860 C 223.912 182.827,223.136 182.980,223.000 183.200 M210.938 185.323 C 210.752 185.646,210.240 185.990,209.800 186.087 C 209.360 186.184,210.080 186.288,211.400 186.318 C 213.052 186.355,213.613 186.253,213.200 185.992 C 212.760 185.713,213.006 185.611,214.124 185.606 C 215.175 185.602,215.559 185.743,215.362 186.062 C 215.178 186.359,215.253 186.415,215.573 186.217 C 216.359 185.731,215.569 185.304,213.338 185.008 C 211.733 184.796,211.201 184.866,210.938 185.323 M208.500 199.100 C 213.065 199.164,220.535 199.164,225.100 199.100 C 229.665 199.035,225.930 198.983,216.800 198.983 C 207.670 198.983,203.935 199.035,208.500 199.100 M200.185 200.100 C 200.081 200.375,200.042 245.510,200.098 300.400 L 200.202 400.200 200.301 300.083 L 200.400 199.966 218.030 200.019 C 227.727 200.049,235.767 199.967,235.897 199.837 C 236.027 199.706,228.088 199.600,218.254 199.600 C 204.319 199.600,200.333 199.710,200.185 200.100 M242.900 199.882 C 240.037 200.434,242.207 200.942,247.058 200.856 C 249.202 200.819,249.972 200.949,250.136 201.378 C 250.301 201.808,250.872 201.903,252.445 201.760 C 253.795 201.637,254.636 201.735,254.823 202.036 C 254.984 202.297,255.959 202.486,257.030 202.465 C 258.086 202.444,259.184 202.621,259.471 202.859 C 259.758 203.097,260.534 203.212,261.196 203.115 C 262.019 202.995,262.400 203.107,262.400 203.469 C 262.400 203.809,262.903 204.000,263.800 204.000 C 264.570 204.000,265.200 204.180,265.200 204.400 C 265.200 204.620,265.920 204.800,266.800 204.800 C 267.680 204.800,268.400 204.980,268.400 205.200 C 268.400 205.420,268.940 205.600,269.600 205.600 C 270.260 205.600,270.800 205.780,270.800 206.000 C 270.800 206.220,271.239 206.400,271.776 206.400 C 272.313 206.400,272.864 206.580,273.000 206.800 C 273.136 207.020,273.687 207.200,274.224 207.200 C 274.761 207.200,275.200 207.380,275.200 207.600 C 275.200 207.820,275.650 208.000,276.200 208.000 C 276.750 208.000,277.200 208.180,277.200 208.400 C 277.200 208.620,277.740 208.800,278.400 208.800 C 279.060 208.800,279.600 208.980,279.600 209.200 C 279.600 209.420,279.834 209.600,280.120 209.600 C 280.856 209.600,282.793 210.541,282.797 210.900 C 282.799 211.065,283.044 211.200,283.343 211.200 C 284.065 211.200,291.212 214.705,292.092 215.491 C 292.717 216.050,292.808 216.045,293.041 215.437 C 293.366 214.590,293.072 214.297,291.757 214.157 C 290.409 214.013,290.073 213.658,290.812 213.160 C 291.271 212.851,291.180 212.778,290.400 212.826 C 288.702 212.932,288.401 212.824,288.368 212.100 C 288.350 211.682,288.256 211.601,288.135 211.900 C 287.851 212.603,286.800 212.525,286.800 211.800 C 286.800 211.470,286.609 211.200,286.376 211.200 C 286.143 211.200,286.067 211.425,286.206 211.700 C 286.345 211.975,286.167 211.840,285.811 211.400 C 285.454 210.960,284.811 210.656,284.381 210.725 C 283.951 210.794,283.600 210.659,283.600 210.425 C 283.600 210.191,283.330 210.000,283.000 210.000 C 282.670 210.000,282.400 209.820,282.400 209.600 C 282.400 209.380,281.950 209.200,281.400 209.200 C 280.850 209.200,280.400 209.020,280.400 208.800 C 280.400 208.580,280.032 208.400,279.583 208.400 C 279.134 208.400,278.380 208.040,277.908 207.600 C 277.436 207.160,276.858 206.803,276.625 206.806 C 276.391 206.809,276.470 206.987,276.800 207.200 C 277.313 207.531,277.298 207.589,276.700 207.594 C 276.315 207.597,276.000 207.420,276.000 207.200 C 276.000 206.980,275.460 206.800,274.800 206.800 C 274.140 206.800,273.600 206.609,273.600 206.376 C 273.600 206.143,273.432 206.057,273.226 206.184 C 273.020 206.311,272.390 205.954,271.826 205.389 C 271.262 204.825,270.800 204.552,270.800 204.782 C 270.800 205.012,270.519 205.200,270.176 205.200 C 269.833 205.200,269.664 205.020,269.800 204.800 C 269.949 204.559,269.412 204.400,268.447 204.400 C 267.567 204.400,266.736 204.220,266.600 204.000 C 266.464 203.780,265.806 203.600,265.138 203.600 C 264.470 203.600,263.368 203.205,262.690 202.721 C 262.011 202.238,261.589 202.058,261.751 202.321 C 261.934 202.618,261.801 202.800,261.400 202.800 C 261.044 202.800,260.836 202.665,260.938 202.500 C 261.040 202.335,260.387 202.156,259.487 202.103 C 258.587 202.050,257.707 201.780,257.532 201.503 C 257.290 201.123,257.209 201.147,257.200 201.600 C 257.191 202.058,257.111 202.080,256.865 201.692 C 256.688 201.413,256.196 201.216,255.771 201.255 C 253.847 201.433,251.570 201.172,251.800 200.800 C 251.938 200.577,251.631 200.400,251.104 200.400 C 250.585 200.400,249.918 200.175,249.621 199.900 C 249.190 199.500,249.139 199.500,249.365 199.900 C 249.569 200.262,249.228 200.398,248.124 200.394 C 246.993 200.389,246.755 200.288,247.200 200.000 C 247.819 199.600,244.795 199.517,242.900 199.882 M293.600 215.760 C 293.600 216.306,296.051 218.000,296.840 218.000 C 297.056 218.000,297.610 218.351,298.071 218.780 C 298.531 219.209,299.525 219.853,300.278 220.210 C 301.032 220.568,301.747 221.117,301.867 221.430 C 301.987 221.744,302.336 222.000,302.643 222.000 C 302.949 222.000,303.200 222.180,303.200 222.400 C 303.200 222.620,303.426 222.800,303.701 222.800 C 303.977 222.800,304.712 223.340,305.335 224.000 C 305.958 224.660,306.712 225.200,307.011 225.200 C 307.310 225.200,307.790 225.525,308.077 225.923 C 308.365 226.321,309.410 227.209,310.400 227.897 C 311.982 228.995,322.304 238.800,321.879 238.800 C 321.789 238.800,322.949 240.049,324.458 241.575 C 325.966 243.101,327.200 244.619,327.200 244.948 C 327.200 245.277,327.515 245.646,327.900 245.768 C 328.285 245.891,328.858 246.578,329.173 247.295 C 329.488 248.013,329.990 248.783,330.289 249.007 C 330.589 249.231,331.051 249.789,331.317 250.248 C 333.759 254.465,336.400 257.453,336.400 256.000 C 336.400 255.780,336.250 255.600,336.068 255.600 C 335.885 255.600,335.480 255.105,335.168 254.500 C 334.855 253.895,334.285 253.051,333.900 252.625 C 333.515 252.198,333.200 251.613,333.200 251.325 C 333.200 251.036,333.001 250.800,332.757 250.800 C 332.514 250.800,332.426 250.510,332.562 250.155 C 332.739 249.694,332.637 249.577,332.205 249.743 C 331.872 249.871,331.600 249.788,331.600 249.559 C 331.600 249.330,331.328 248.871,330.996 248.539 C 330.664 248.207,330.512 247.742,330.658 247.506 C 330.815 247.251,330.736 247.193,330.462 247.362 C 330.185 247.533,330.000 247.387,330.000 247.000 C 330.000 246.643,329.808 246.471,329.573 246.617 C 329.339 246.762,329.180 246.637,329.221 246.340 C 329.397 245.055,329.214 244.559,328.800 245.200 C 328.587 245.530,328.409 245.597,328.406 245.348 C 328.403 245.100,327.680 244.155,326.800 243.248 C 325.920 242.341,325.200 241.492,325.200 241.360 C 325.200 241.229,324.705 240.629,324.100 240.028 C 322.268 238.208,319.553 235.200,319.743 235.200 C 319.841 235.200,319.417 234.660,318.800 234.000 C 318.183 233.340,317.488 232.800,317.254 232.800 C 317.020 232.800,316.635 232.440,316.400 232.000 C 316.165 231.560,315.698 231.200,315.362 231.200 C 315.027 231.200,314.856 231.033,314.982 230.829 C 315.108 230.625,314.849 230.343,314.406 230.202 C 313.963 230.061,313.600 229.768,313.600 229.549 C 313.600 229.331,313.420 229.264,313.200 229.400 C 312.980 229.536,312.800 229.337,312.800 228.957 C 312.800 228.577,312.686 228.380,312.547 228.519 C 312.408 228.658,311.796 228.238,311.187 227.586 C 310.578 226.934,309.871 226.400,309.616 226.400 C 309.361 226.400,309.264 226.220,309.400 226.000 C 309.536 225.780,309.358 225.600,309.005 225.600 C 308.260 225.600,306.331 223.802,306.691 223.442 C 306.824 223.309,306.530 223.200,306.038 223.200 C 305.229 223.200,303.494 222.012,304.271 221.991 C 304.452 221.986,304.021 221.697,303.314 221.348 C 302.607 220.999,302.044 220.598,302.062 220.457 C 302.195 219.417,301.977 219.017,301.594 219.600 C 301.329 220.004,301.102 220.060,300.900 219.771 C 300.735 219.535,300.285 219.225,299.900 219.083 C 299.515 218.941,299.200 218.549,299.200 218.213 C 299.200 217.680,298.476 217.399,297.500 217.553 C 297.335 217.579,297.200 217.420,297.200 217.200 C 297.200 216.980,296.874 216.800,296.475 216.800 C 296.077 216.800,295.364 216.440,294.892 216.000 C 293.877 215.054,293.600 215.003,293.600 215.760 M336.000 257.377 C 336.000 257.695,336.359 258.206,336.797 258.513 C 337.236 258.820,337.489 259.178,337.359 259.308 C 337.229 259.438,337.650 260.321,338.294 261.272 C 338.938 262.222,339.580 263.315,339.720 263.700 C 339.860 264.085,340.351 264.400,340.811 264.400 C 341.271 264.400,341.536 264.220,341.400 264.000 C 341.264 263.780,340.933 263.600,340.664 263.600 C 339.969 263.600,339.137 261.299,339.742 261.051 C 339.994 260.948,339.840 260.845,339.400 260.823 C 338.846 260.796,338.321 260.172,337.692 258.792 C 336.815 256.868,336.000 256.186,336.000 257.377 M340.959 266.153 C 341.202 266.859,341.715 267.916,342.100 268.504 C 342.485 269.091,342.800 269.740,342.800 269.945 C 342.800 270.151,343.340 271.345,344.000 272.600 C 344.660 273.855,345.200 275.212,345.200 275.617 C 345.200 276.022,345.380 276.464,345.600 276.600 C 345.820 276.736,346.000 277.197,346.000 277.624 C 346.000 278.051,346.180 278.400,346.400 278.400 C 346.620 278.400,346.800 278.951,346.800 279.624 C 346.800 280.337,346.967 280.744,347.200 280.600 C 347.433 280.456,347.600 280.855,347.600 281.553 C 347.600 282.213,347.780 282.864,348.000 283.000 C 348.220 283.136,348.400 283.687,348.400 284.224 C 348.400 284.761,348.580 285.200,348.800 285.200 C 349.020 285.200,349.200 285.819,349.200 286.576 C 349.200 287.333,349.380 288.064,349.600 288.200 C 349.820 288.336,350.000 289.067,350.000 289.824 C 350.000 290.581,350.150 291.200,350.333 291.200 C 350.517 291.200,350.667 291.846,350.667 292.635 C 350.667 293.425,350.901 294.215,351.188 294.393 C 351.510 294.592,351.628 295.142,351.496 295.832 C 351.241 297.165,351.527 298.092,352.086 297.747 C 352.350 297.584,352.393 298.199,352.210 299.526 C 352.057 300.641,352.046 301.915,352.186 302.356 C 352.534 303.452,353.600 302.982,353.600 301.734 C 353.600 301.182,353.425 300.861,353.200 301.000 C 352.765 301.269,352.729 300.984,352.745 297.412 C 352.752 295.790,352.636 295.213,352.384 295.612 C 352.128 296.017,352.008 295.513,352.000 294.000 C 351.991 292.430,351.877 291.972,351.600 292.400 C 351.316 292.839,351.211 292.537,351.206 291.276 C 351.202 290.231,351.043 289.650,350.800 289.800 C 350.407 290.043,350.230 288.771,350.390 286.855 C 350.440 286.263,350.307 286.010,350.035 286.179 C 349.752 286.353,349.600 285.940,349.600 285.000 C 349.600 284.137,349.439 283.653,349.200 283.800 C 348.966 283.945,348.800 283.530,348.800 282.800 C 348.800 281.957,348.650 281.646,348.337 281.839 C 348.019 282.035,347.945 281.852,348.101 281.256 C 348.231 280.759,348.086 280.144,347.764 279.822 C 347.454 279.511,347.200 278.784,347.200 278.205 C 347.200 277.605,347.028 277.259,346.800 277.400 C 346.573 277.540,346.400 277.204,346.400 276.624 C 346.400 276.061,346.220 275.600,346.000 275.600 C 345.780 275.600,345.600 275.060,345.600 274.400 C 345.600 273.740,345.420 273.200,345.200 273.200 C 344.980 273.200,344.800 272.840,344.800 272.400 C 344.800 271.960,344.620 271.600,344.400 271.600 C 344.180 271.600,344.000 271.240,344.000 270.800 C 344.000 270.360,343.820 270.000,343.600 270.000 C 343.380 270.000,343.200 269.719,343.200 269.376 C 343.200 268.984,343.385 268.864,343.700 269.053 C 344.044 269.260,344.030 269.144,343.655 268.681 C 343.355 268.311,342.950 268.107,342.755 268.228 C 342.560 268.349,342.400 268.077,342.400 267.624 C 342.400 267.171,342.220 266.800,342.000 266.800 C 341.780 266.800,341.600 266.459,341.600 266.043 C 341.600 265.626,341.357 265.192,341.059 265.078 C 340.620 264.909,340.601 265.111,340.959 266.153 M352.968 305.028 C 352.821 305.814,352.877 307.029,353.093 307.728 L 353.485 309.000 353.943 307.874 C 354.529 306.430,354.573 304.714,354.000 305.600 C 353.574 306.260,353.426 305.804,353.579 304.300 C 353.709 303.019,353.240 303.578,352.968 305.028 M353.600 357.133 C 353.600 399.797,353.604 400.000,354.404 400.000 C 355.300 400.000,355.697 319.037,354.803 318.731 C 354.592 318.659,354.366 317.755,354.299 316.722 C 353.794 308.918,353.600 320.138,353.600 357.133 " stroke="none" fill="#048cfc" fill-rule="evenodd"></path><path id="path4" d="" stroke="none" fill="#08a4fc" fill-rule="evenodd"></path></g></svg>